HIERARCHY
ROOT Hips
{
	OFFSET -3.958830 18.904000 13.208200
	CHANNELS 6 Xposition Yposition Zposition Zrotation Yrotation Xrotation 
	JOINT LHipJoint
	{
		OFFSET 0.000000 0.000000 0.000000
		CHANNELS 3 Zrotation Yrotation Xrotation
		JOINT LeftUpLeg
		{
			OFFSET 1.800000 -1.400000 0.085000
			CHANNELS 3 Zrotation Yrotation Xrotation
			JOINT LeftLeg
			{
				OFFSET 2.215000 -6.000000 0.000000
				CHANNELS 3 Zrotation Yrotation Xrotation
				JOINT LeftFoot
				{
					OFFSET 2.500000 -6.900000 0.000000
					CHANNELS 3 Zrotation Yrotation Xrotation
					JOINT LeftToeBase
					{
						OFFSET 0.200000 -0.500000 1.950000
						CHANNELS 3 Zrotation Yrotation Xrotation
						End Site
						{
							OFFSET 0.000000 0.000000 0.000000
						}
					}
				}
			}
		}
	}
	JOINT RHipJoint
	{
		OFFSET 0.000000 0.000000 0.000000
		CHANNELS 3 Zrotation Yrotation Xrotation
		JOINT RightUpLeg
		{
			OFFSET -1.800000 -1.400000 0.085000
			CHANNELS 3 Zrotation Yrotation Xrotation
			JOINT RightLeg
			{
				OFFSET -2.215000 -6.000000 0.000000
				CHANNELS 3 Zrotation Yrotation Xrotation
				JOINT RightFoot
				{
					OFFSET -2.500000 -6.900000 0.000000
					CHANNELS 3 Zrotation Yrotation Xrotation
					JOINT RightToeBase
					{
						OFFSET -0.200000 -0.500000 1.950000
						CHANNELS 3 Zrotation Yrotation Xrotation
						End Site
						{
							OFFSET 0.000000 0.000000 0.000000
						}
					}
				}
			}
		}
	}
	JOINT LowerBack
	{
		OFFSET 0.000000 0.000000 0.000000
		CHANNELS 3 Zrotation Yrotation Xrotation
		JOINT Spine
		{
			OFFSET -0.087000 1.940000 -0.288900
			CHANNELS 3 Zrotation Yrotation Xrotation
			JOINT Spine1
			{
				OFFSET 0.000000 1.950000 0.060000
				CHANNELS 3 Zrotation Yrotation Xrotation
				JOINT Neck
				{
					OFFSET 0.000000 0.000000 0.000000
					CHANNELS 3 Zrotation Yrotation Xrotation
					JOINT Neck1
					{
						OFFSET 0.000000 1.600000 0.340000
						CHANNELS 3 Zrotation Yrotation Xrotation
						JOINT Head
						{
							OFFSET 0.000000 1.667000 -0.240000
							CHANNELS 3 Zrotation Yrotation Xrotation
							End Site
							{
								OFFSET 0.000000 0.000000 0.000000
							}
						}
					}
				}
				JOINT LeftShoulder
				{
					OFFSET 0.000000 0.000000 0.000000
					CHANNELS 3 Zrotation Yrotation Xrotation
					JOINT LeftArm
					{
						OFFSET 2.700000 1.550000 -0.730000
						CHANNELS 3 Zrotation Yrotation Xrotation
						JOINT LeftForeArm
						{
							OFFSET 5.450000 0.000000 0.000000
							CHANNELS 3 Zrotation Yrotation Xrotation
							JOINT LeftHand
							{
								OFFSET 3.450000 0.000000 0.000000
								CHANNELS 3 Zrotation Yrotation Xrotation
								JOINT LeftHandIndex1
								{
									OFFSET 0.750000 0.000000 0.000000
									CHANNELS 3 Zrotation Yrotation Xrotation
									End Site
									{
										OFFSET 0.000000 0.000000 0.000000
									}
								}
							}
						}
					}
				}
				JOINT RightShoulder
				{
					OFFSET 0.000000 0.000000 0.000000
					CHANNELS 3 Zrotation Yrotation Xrotation
					JOINT RightArm
					{
						OFFSET -2.700000 1.550000 -0.730000
						CHANNELS 3 Zrotation Yrotation Xrotation
						JOINT RightForeArm
						{
							OFFSET -5.450000 0.000000 0.000000
							CHANNELS 3 Zrotation Yrotation Xrotation
							JOINT RightHand
							{
								OFFSET -3.450000 0.000000 0.000000
								CHANNELS 3 Zrotation Yrotation Xrotation
								JOINT RightHandIndex1
								{
									OFFSET -0.750000 0.000000 0.000000
									CHANNELS 3 Zrotation Yrotation Xrotation
									End Site
									{
										OFFSET 0.000000 0.000000 0.000000
									}
								}
							}
						}
					}
				}
			}
		}
	}
}
MOTION
Frames: 8
Frame Time: 0.016667
0.914730 16.303920 -1.881900 -7.124108 -11.420335 -0.602118 -14.979553 12.548000 1.555787 12.038058 -1.482215 -9.752735 -4.461200 6.847987 19.779164 -0.871820 5.366984 2.967704 0.691820 0.074530 0.472990 18.804624 -8.689199 5.573052 -26.466946 4.974550 -47.331500 23.217129 -31.321324 63.430115 -2.425205 -13.436287 0.269050 0.293560 0.448810 0.303210 -4.638980 -2.500438 -8.132887 21.448232 -7.215841 16.400754 -6.134241 -4.297281 4.129644 0.694976 -6.940181 -8.042444 -13.312422 6.671094 26.288967 -2.749510 2.981950 -12.245050 -25.768520 -9.789110 1.949669 -21.506676 -8.890869 2.095347 -111.236283 -55.265511 66.682005 -3.965381 3.471236 0.745940 0.285970 -0.182830 0.413280 24.005721 11.184277 5.826811 29.334439 -1.474569 -8.104907 17.563600 40.640319 4.567783 1.474463 -1.635050 -0.433470 0.433700 -0.034880 -0.422110 
0.941870 16.269070 -1.906780 -7.518316 -11.874374 -1.101014 -14.978856 12.555496 1.515131 12.241616 -1.410808 -9.541447 -4.143377 6.879352 20.389727 -0.870031 5.379092 2.937991 0.756510 0.143220 0.536840 18.808125 -8.606505 5.705189 -26.972465 5.227584 -47.849369 24.221208 -32.439123 64.182868 -2.559664 -13.667392 0.212250 0.314800 0.369950 0.305790 -4.645192 -2.555861 -8.196842 22.363875 -7.838053 18.230640 -6.649023 -4.497562 3.556973 0.872777 -7.408343 -7.975008 -14.237707 6.716099 26.514704 -3.221960 2.846460 -14.778240 -26.442096 -9.860828 1.739453 -20.599935 -8.714654 1.581205 -108.093335 -54.999181 63.360027 -3.892206 3.466315 0.800200 0.223270 -0.114660 0.413060 24.290946 11.559913 5.798229 28.390557 -0.937348 -8.166961 18.743530 41.929051 5.186351 1.484866 -1.635539 -0.406360 0.427980 -0.073250 -0.436350 
0.978340 16.207260 -1.955750 -7.778894 -13.039581 -1.784799 -15.005093 12.592866 1.465904 12.243325 -1.294763 -9.652958 -3.715407 7.101517 22.054270 -0.826180 5.485111 2.873315 0.788150 0.193400 0.554750 18.792232 -8.413506 5.950748 -27.809741 5.910417 -49.352539 25.117369 -33.832752 65.937470 -2.725968 -14.065316 0.128747 0.319910 0.310020 0.295970 -4.587003 -2.761435 -8.323097 22.903482 -8.522412 21.407690 -6.913224 -4.576527 2.182368 0.983824 -8.269065 -8.044818 -16.000277 7.145765 26.706332 -3.304710 2.466100 -16.850710 -27.676072 -10.102528 1.572177 -19.472895 -8.017862 0.676534 -101.408596 -54.326117 56.655382 -3.812818 3.463279 0.833070 0.163030 -0.060820 0.413420 25.310193 12.550832 5.901863 26.569596 -0.242867 -8.243868 20.193676 43.672513 6.028759 1.507865 -1.639891 -0.377090 0.428170 -0.095320 -0.429020 
1.008490 16.124010 -2.016070 -7.677118 -14.730755 -2.713411 -15.067572 12.673406 1.444722 12.052440 -1.158023 -9.896676 -3.350741 7.516100 24.437785 -0.770034 5.714030 2.762845 0.829890 0.237920 0.591590 18.737635 -8.166217 6.218140 -28.638862 6.957527 -51.077717 25.841354 -35.045742 68.001758 -2.897034 -14.488020 0.041771 0.326150 0.246830 0.289190 -4.420291 -3.098692 -8.496186 22.002577 -8.582509 25.423641 -6.484888 -4.244357 0.529306 1.069714 -8.611159 -8.028492 -16.845265 7.519027 27.203163 -3.102280 2.281190 -18.744450 -29.112152 -10.425820 1.301909 -18.274275 -7.474725 -0.174388 -94.816233 -53.101415 50.151279 -3.718872 3.471078 0.875050 0.103110 -0.010690 0.413270 26.640661 13.465132 5.962330 24.879840 0.307823 -8.516075 20.959833 45.729087 6.720644 1.521096 -1.659353 -0.354250 0.419850 -0.124120 -0.434080 
1.036350 16.027140 -2.071690 -6.944684 -17.087511 -3.484591 -15.158790 12.712722 1.474145 11.514310 -1.013602 -10.556647 -3.683230 8.302848 27.160343 -0.646859 6.046694 2.614718 0.867160 0.298570 0.612030 18.669021 -7.865000 6.483765 -29.719439 8.205639 -53.309835 25.870285 -35.653141 70.302771 -3.029545 -14.879214 -0.035884 0.334450 0.195240 0.283390 -4.206655 -3.458540 -8.689132 19.942862 -7.846026 29.055421 -5.559876 -3.582086 -1.067398 1.087725 -8.720116 -8.018783 -17.195635 8.166010 27.596085 -2.875870 2.528190 -19.220900 -30.489312 -10.570951 1.198123 -17.716331 -6.404391 -1.007088 -89.116452 -51.383746 44.292402 -3.632850 3.515674 0.864190 0.066240 0.022740 0.420070 28.112466 14.287583 5.916781 23.249288 0.985327 -8.600207 22.280742 47.412227 7.540749 1.552501 -1.715795 -0.309470 0.388310 -0.164760 -0.419230 
1.059660 15.931840 -2.106570 -6.090333 -18.990681 -4.597122 -15.247542 12.807334 1.544915 10.890960 -0.909505 -11.067277 -3.864558 9.153718 30.170150 -0.538101 6.518538 2.432536 0.846290 0.282580 0.612190 18.583166 -7.657508 6.603446 -30.556119 9.178542 -54.013156 25.887442 -35.681955 71.511320 -3.075285 -15.044238 -0.064676 0.319920 0.181950 0.272570 -3.957841 -3.845468 -8.843389 17.678324 -6.923705 32.192546 -4.706531 -2.981643 -2.707551 1.234251 -8.352500 -7.885789 -16.763677 8.784934 28.837201 -3.109870 3.113890 -19.010820 -32.275845 -10.881426 1.034823 -17.587152 -5.456795 -1.710270 -81.009112 -47.533561 35.627316 -3.578818 3.495831 0.867270 0.059730 0.031300 0.404710 29.738885 14.880238 5.817583 21.938011 1.683622 -8.685841 23.125184 47.980052 8.007255 1.568098 -1.718412 -0.311910 0.387320 -0.160410 -0.424680 
1.086100 15.839150 -2.114600 -5.417510 -20.121444 -5.442279 -15.313651 12.865175 1.659476 10.306896 -1.091219 -12.315382 -3.797652 10.038734 33.944753 -0.444945 7.138689 2.201118 0.799970 0.217540 0.613680 18.516029 -7.534108 6.598631 -31.336805 9.523478 -53.611619 26.070211 -35.456508 71.439650 -3.059959 -14.982484 -0.051448 0.285000 0.186210 0.266540 -3.766568 -4.147364 -8.949889 16.224084 -6.247346 33.954819 -4.147642 -2.562868 -3.738946 1.514813 -8.062511 -7.856384 -16.562113 9.327601 30.357913 -3.692910 3.630380 -19.299930 -33.476167 -10.920010 0.997597 -19.429680 -4.337244 -2.564341 -70.764860 -43.394531 26.460208 -3.550246 3.395996 0.906490 0.054740 0.039440 0.376560 30.458496 15.168460 5.708560 22.164639 2.271754 -9.089340 23.071085 48.227973 8.032880 1.572507 -1.654228 -0.343350 0.413700 -0.125940 -0.446000 
1.104090 15.752560 -2.111350 -4.810244 -20.402335 -5.977073 -15.340896 12.827183 1.857079 10.120231 -1.542736 -14.037627 -4.385784 11.191081 37.609107 -0.287370 7.805477 1.939641 0.773300 0.176530 0.641370 18.479547 -7.512732 6.490246 -31.931834 9.427823 -52.371693 26.420718 -34.818886 70.084576 -2.977244 -14.690691 -0.000745 0.246370 0.145760 0.260850 -3.674143 -4.224048 -9.058428 15.550656 -5.787872 34.403158 -4.308427 -2.197837 -4.340635 1.968977 -7.425132 -7.938679 -15.845090 9.418904 32.917939 -4.356510 4.178670 -18.742260 -34.604831 -11.122355 0.984514 -21.166251 -3.411823 -3.215214 -60.899591 -37.990838 18.329208 -3.494609 3.326958 0.918460 0.034390 0.057740 0.340080 30.656732 15.259120 5.756145 24.228975 2.353829 -9.735556 22.488495 48.074443 7.605512 1.605808 -1.609681 -0.336870 0.388290 -0.123090 -0.465590 
